<svg width="0" height="0" class="hidden">
   <symbol fill="none" xmlns="http://www.w3.org/2000/svg" viewBox="0 0 17 16" id="close">
    <path d="M10.4144 7.99995L16.6575 1.76968C17.0638 1.36443 17.0638 0.709193 16.6575 0.30394C16.2514 -0.101313 15.5948 -0.101313 15.1887 0.30394L8.94539 6.53421L2.70225 0.30394C2.29595 -0.101313 1.63953 -0.101313 1.23343 0.30394C0.827138 0.709193 0.827138 1.36443 1.23343 1.76968L7.47657 7.99995L1.23343 14.2302C0.827138 14.6355 0.827138 15.2907 1.23343 15.696C1.43582 15.8981 1.70192 15.9997 1.96784 15.9997C2.23376 15.9997 2.49967 15.8981 2.70225 15.696L8.94539 9.4657L15.1887 15.696C15.3913 15.8981 15.6572 15.9997 15.9231 15.9997C16.189 15.9997 16.455 15.8981 16.6575 15.696C17.0638 15.2907 17.0638 14.6355 16.6575 14.2302L10.4144 7.99995Z" fill="white"></path>
  </symbol>
  <symbol version="1.1" id="design" xmlns="http://www.w3.org/2000/svg" xmlns:xlink="http://www.w3.org/1999/xlink" x="0px" y="0px" enable-background="new 0 0 1009.9766 1009.9527" xml:space="preserve" viewBox="0 0 1009.9766 1009.9527">
    <g id="brush-label">
      <path fill="#414141" d="M504.9644,0C226.1074,0,0,226.1314,0,505c0,278.8921,226.1074,504.9527,504.9644,504.9527
		c278.9048,0,505.0122-226.0606,505.0122-504.9527C1009.9766,226.1314,783.8692,0,504.9644,0z"></path>
    </g>
    <g id="brush-brush">
      <path fill="#ccc" d="M511.2569,587.9966l-38.1016-31.9043c-8.8906-7.4609-22.1675-6.2803-29.6162,2.6338
		c-7.4487,8.8906-6.2686,22.1553,2.6338,29.6162l38.1015,31.9043c8.9151,7.4492,22.1553,6.2686,29.6045-2.6221
		C521.3281,608.7105,520.1602,595.4575,511.2569,587.9966z"></path>
      <path fill="#ffbc00" d="M764.5977,252.8394l-3.6953-3.0923c-20.2246-16.9356-50.6514-14.2481-67.5987,6.0005L479.8413,480.7471
		c-16.9355,20.2485-14.2417,50.6753,5.9947,67.6226l33.0957,27.7334c20.249,16.9355,50.6875,14.2412,67.623-5.9834l184.002-249.6753
		C787.5274,300.2134,784.834,269.793,764.5977,252.8394z M713.1836,277.7305l-85.3447,101.2671
		c-2.0977,2.4248-5.8399,2.6933-8.2715,0.5659l-3.9561-3.4741c-2.4434-2.1275-2.6943-5.8516-0.5839-8.2891l88.9199-98.1562
		c2.1094-2.4434,5.8398-2.6875,8.2588-0.5601l0.4521,0.3814C715.0781,271.5865,715.3281,275.3169,713.1836,277.7305z"></path>
      <path fill="#ffbc00" d="M432.7178,588.3306c-80.3984-28.2695-115.044,43.8818-119.0967,104.8066
		c-4.04,60.9248-54.417,60.6865-54.417,60.6865c278.1172,76.6085,224.3555-122.9219,224.3555-122.9219L432.7178,588.3306z
		 M334.3584,666.7984c13.1817-90.9102,84.2007-68.5284,84.2007-68.5284l27.7808,19.8438
		C373.7832,596.3872,334.3584,666.7984,334.3584,666.7984z"></path>
      <path fill="#fff" d="M316.625,471.94c-49.0185,7.3886-20.1059,69.8271,11.1787,119.8945
		C327.8037,591.8345,381.4707,462.1909,316.625,471.94z"></path>
      <path fill="#fff" d="M231.2207,549.1675c-16.1367,34.6816,36.3614,42.6904,81.876,43.8828
		C313.0967,593.0503,252.5777,503.2954,231.2207,549.1675z"></path>
    </g>
  </symbol>
     <symbol xmlns="http://www.w3.org/2000/svg" viewBox="0 0 32 32" id="sass">
    <path d="M26.11,17.572a5.8,5.8,0,0,0-2.537.588,5.345,5.345,0,0,1-.568-1.314,3.53,3.53,0,0,1-.051-1.1,9.811,9.811,0,0,1,.332-1.192c-.005-.051-.061-.292-.624-.3s-1.048.107-1.1.256a6.171,6.171,0,0,0-.235.834,19.686,19.686,0,0,1-1.713,3.294,3.186,3.186,0,0,1-.44-2.066,9.811,9.811,0,0,1,.332-1.192c-.005-.051-.061-.292-.624-.3s-1.048.107-1.1.256-.118.5-.235.834-1.483,3.386-1.841,4.173c-.184.4-.343.726-.455.946h0a.233.233,0,0,1-.02.041c-.1.189-.153.292-.153.292v.005c-.077.138-.159.266-.2.266a1.711,1.711,0,0,1,.01-.869c.2-1.059.69-2.705.685-2.762,0-.031.092-.317-.317-.465a.508.508,0,0,0-.578.1c-.036,0-.061.087-.061.087s.445-1.851-.849-1.851a3.855,3.855,0,0,0-2.475,1.683c-.348.189-1.089.593-1.882,1.028-.3.169-.614.338-.905.5-.02-.02-.041-.046-.061-.066C6.87,17.6,3.975,16.416,4.1,14.171c.046-.818.327-2.966,5.559-5.575,4.306-2.122,7.733-1.534,8.326-.23.849,1.862-1.836,5.319-6.285,5.82a3.351,3.351,0,0,1-2.813-.711c-.235-.256-.271-.271-.358-.22-.143.077-.051.307,0,.44a2.626,2.626,0,0,0,1.606,1.263,8.55,8.55,0,0,0,5.217-.517c2.7-1.043,4.8-3.943,4.184-6.372-.619-2.465-4.71-3.278-8.582-1.9A19.5,19.5,0,0,0,4.359,9.952c-2.133,1.995-2.47,3.728-2.332,4.455.5,2.578,4.051,4.255,5.472,5.5-.072.041-.138.077-.194.107-.711.353-3.421,1.77-4.1,3.268-.767,1.7.123,2.915.711,3.079a4.374,4.374,0,0,0,4.71-1.908A4.725,4.725,0,0,0,9.049,20.1a.107.107,0,0,0-.02-.031l.557-.327c.363-.215.721-.414,1.028-.578a6.74,6.74,0,0,0-.363,1.862,3.886,3.886,0,0,0,.834,2.7.921.921,0,0,0,.675.22c.6,0,.875-.5,1.176-1.094.368-.726.7-1.57.7-1.57s-.414,2.281.711,2.281c.409,0,.823-.532,1.008-.8v.005s.01-.015.031-.051l.066-.107v-.01c.164-.286.532-.936,1.079-2.015.706-1.391,1.386-3.13,1.386-3.13a8.888,8.888,0,0,0,.271,1.13,10.643,10.643,0,0,0,.583,1.309c-.164.23-.266.358-.266.358l.005.005c-.133.174-.276.363-.435.547a16.3,16.3,0,0,0-1.314,1.647.447.447,0,0,0,.123.6,1.116,1.116,0,0,0,.685.113,3.147,3.147,0,0,0,1.028-.235,3.45,3.45,0,0,0,.885-.465,1.98,1.98,0,0,0,.849-1.744,3.521,3.521,0,0,0-.322-1.233c.051-.072.1-.143.148-.215a23.428,23.428,0,0,0,1.534-2.649,8.888,8.888,0,0,0,.271,1.13,7.57,7.57,0,0,0,.5,1.125A4.861,4.861,0,0,0,20.965,20.8c-.322.931-.072,1.35.4,1.447a1.425,1.425,0,0,0,.747-.153,3.4,3.4,0,0,0,.946-.486,2.126,2.126,0,0,0,1.043-1.729,3.268,3.268,0,0,0-.235-1.023,5.356,5.356,0,0,1,2.716-.312c2.434.286,2.915,1.805,2.823,2.445a1.618,1.618,0,0,1-.772,1.094c-.169.107-.225.143-.21.22.02.113.1.107.245.087A1.9,1.9,0,0,0,30,20.7c.077-1.5-1.355-3.145-3.887-3.13ZM7.33,23.9c-.808.88-1.933,1.212-2.419.931-.522-.3-.317-1.6.675-2.532a12.884,12.884,0,0,1,1.9-1.417c.118-.072.292-.174.5-.3l.056-.031h0l.123-.077A3.493,3.493,0,0,1,7.33,23.9Zm5.881-4c-.281.685-.869,2.44-1.227,2.342-.307-.082-.5-1.412-.061-2.726a6.193,6.193,0,0,1,.956-1.754c.44-.491.926-.655,1.043-.455a9.062,9.062,0,0,1-.711,2.593Zm4.853,2.322c-.118.061-.23.1-.281.072-.036-.02.051-.1.051-.1s.609-.655.849-.951c.138-.174.3-.378.476-.609V20.7c0,.782-.757,1.309-1.094,1.524Zm3.744-.854c-.087-.061-.072-.266.22-.905a3.408,3.408,0,0,1,.834-1.074,1.448,1.448,0,0,1,.082.471,1.547,1.547,0,0,1-1.135,1.509Z"></path>
  </symbol>
  <symbol xmlns="http://www.w3.org/2000/svg" viewBox="0 0 32 32" id="js">
    <path d="M18.774,19.7a3.727,3.727,0,0,0,3.376,2.078c1.418,0,2.324-.709,2.324-1.688,0-1.173-.931-1.589-2.491-2.272l-.856-.367c-2.469-1.052-4.11-2.37-4.11-5.156,0-2.567,1.956-4.52,5.012-4.52A5.058,5.058,0,0,1,26.9,10.52l-2.665,1.711a2.327,2.327,0,0,0-2.2-1.467,1.489,1.489,0,0,0-1.638,1.467c0,1.027.636,1.442,2.1,2.078l.856.366c2.908,1.247,4.549,2.518,4.549,5.376,0,3.081-2.42,4.769-5.671,4.769a6.575,6.575,0,0,1-6.236-3.5ZM6.686,20c.538.954,1.027,1.76,2.2,1.76,1.124,0,1.834-.44,1.834-2.15V7.975h3.422V19.658c0,3.543-2.078,5.156-5.11,5.156A5.312,5.312,0,0,1,3.9,21.688Z"></path>
  </symbol>
  <symbol id="figma" xmlns="http://www.w3.org/2000/svg" viewBox="0 0 256 256">
    <path d="M186.61523,94.00049A41.97934,41.97934,0,0,0,162,18.001H94A41.97934,41.97934,0,0,0,69.38477,94.00049a41.93894,41.93894,0,0,0,.00048,67.99939A41.9892,41.9892,0,1,0,136,195.99951V160.948a41.97356,41.97356,0,1,0,50.61523-66.94751ZM188,60.001a26.02916,26.02916,0,0,1-25.98047,25.99951L162,86l-.03857.001L136,86V34.001h26A26.02947,26.02947,0,0,1,188,60.001Zm-120,0a26.02947,26.02947,0,0,1,26-26h26V86H94l-.019.00049A26.02934,26.02934,0,0,1,68,60.001ZM68,128a26.02926,26.02926,0,0,1,25.981-25.99951L94,102.001l26-.00074V153.999L94,154A26.02947,26.02947,0,0,1,68,128Zm26,93.999A25.99951,25.99951,0,1,1,94,170l26-.00073v26.00024A26.02937,26.02937,0,0,1,94,221.999ZM162,154a25.99952,25.99952,0,0,1-.03857-51.999H162l.019-.00049A25.99976,25.99976,0,0,1,162,154Z"></path>
  </symbol>
  <symbol xmlns="http://www.w3.org/2000/svg" enable-background="new 0 0 128 128" viewBox="0 0 128 128" id="react">
    <g>
      <circle cx="64" cy="64" r="11.4"></circle>
      <path d="M107.3 45.2c-2.2-.8-4.5-1.6-6.9-2.3.6-2.4 1.1-4.8 1.5-7.1 2.1-13.2-.2-22.5-6.6-26.1-1.9-1.1-4-1.6-6.4-1.6-7 0-15.9 5.2-24.9 13.9-9-8.7-17.9-13.9-24.9-13.9-2.4 0-4.5.5-6.4 1.6-6.4 3.7-8.7 13-6.6 26.1.4 2.3.9 4.7 1.5 7.1-2.4.7-4.7 1.4-6.9 2.3-12.5 4.8-19.3 11.4-19.3 18.8s6.9 14 19.3 18.8c2.2.8 4.5 1.6 6.9 2.3-.6 2.4-1.1 4.8-1.5 7.1-2.1 13.2.2 22.5 6.6 26.1 1.9 1.1 4 1.6 6.4 1.6 7.1 0 16-5.2 24.9-13.9 9 8.7 17.9 13.9 24.9 13.9 2.4 0 4.5-.5 6.4-1.6 6.4-3.7 8.7-13 6.6-26.1-.4-2.3-.9-4.7-1.5-7.1 2.4-.7 4.7-1.4 6.9-2.3 12.5-4.8 19.3-11.4 19.3-18.8s-6.8-14-19.3-18.8zm-14.8-30.5c4.1 2.4 5.5 9.8 3.8 20.3-.3 2.1-.8 4.3-1.4 6.6-5.2-1.2-10.7-2-16.5-2.5-3.4-4.8-6.9-9.1-10.4-13 7.4-7.3 14.9-12.3 21-12.3 1.3 0 2.5.3 3.5.9zm-11.2 59.3c-1.8 3.2-3.9 6.4-6.1 9.6-3.7.3-7.4.4-11.2.4-3.9 0-7.6-.1-11.2-.4-2.2-3.2-4.2-6.4-6-9.6-1.9-3.3-3.7-6.7-5.3-10 1.6-3.3 3.4-6.7 5.3-10 1.8-3.2 3.9-6.4 6.1-9.6 3.7-.3 7.4-.4 11.2-.4 3.9 0 7.6.1 11.2.4 2.2 3.2 4.2 6.4 6 9.6 1.9 3.3 3.7 6.7 5.3 10-1.7 3.3-3.4 6.6-5.3 10zm8.3-3.3c1.5 3.5 2.7 6.9 3.8 10.3-3.4.8-7 1.4-10.8 1.9 1.2-1.9 2.5-3.9 3.6-6 1.2-2.1 2.3-4.2 3.4-6.2zm-25.6 27.1c-2.4-2.6-4.7-5.4-6.9-8.3 2.3.1 4.6.2 6.9.2 2.3 0 4.6-.1 6.9-.2-2.2 2.9-4.5 5.7-6.9 8.3zm-18.6-15c-3.8-.5-7.4-1.1-10.8-1.9 1.1-3.3 2.3-6.8 3.8-10.3 1.1 2 2.2 4.1 3.4 6.1 1.2 2.2 2.4 4.1 3.6 6.1zm-7-25.5c-1.5-3.5-2.7-6.9-3.8-10.3 3.4-.8 7-1.4 10.8-1.9-1.2 1.9-2.5 3.9-3.6 6-1.2 2.1-2.3 4.2-3.4 6.2zm25.6-27.1c2.4 2.6 4.7 5.4 6.9 8.3-2.3-.1-4.6-.2-6.9-.2-2.3 0-4.6.1-6.9.2 2.2-2.9 4.5-5.7 6.9-8.3zm22.2 21l-3.6-6c3.8.5 7.4 1.1 10.8 1.9-1.1 3.3-2.3 6.8-3.8 10.3-1.1-2.1-2.2-4.2-3.4-6.2zm-54.5-16.2c-1.7-10.5-.3-17.9 3.8-20.3 1-.6 2.2-.9 3.5-.9 6 0 13.5 4.9 21 12.3-3.5 3.8-7 8.2-10.4 13-5.8.5-11.3 1.4-16.5 2.5-.6-2.3-1-4.5-1.4-6.6zm-24.7 29c0-4.7 5.7-9.7 15.7-13.4 2-.8 4.2-1.5 6.4-2.1 1.6 5 3.6 10.3 6 15.6-2.4 5.3-4.5 10.5-6 15.5-13.8-4-22.1-10-22.1-15.6zm28.5 49.3c-4.1-2.4-5.5-9.8-3.8-20.3.3-2.1.8-4.3 1.4-6.6 5.2 1.2 10.7 2 16.5 2.5 3.4 4.8 6.9 9.1 10.4 13-7.4 7.3-14.9 12.3-21 12.3-1.3 0-2.5-.3-3.5-.9zm60.8-20.3c1.7 10.5.3 17.9-3.8 20.3-1 .6-2.2.9-3.5.9-6 0-13.5-4.9-21-12.3 3.5-3.8 7-8.2 10.4-13 5.8-.5 11.3-1.4 16.5-2.5.6 2.3 1 4.5 1.4 6.6zm9-15.6c-2 .8-4.2 1.5-6.4 2.1-1.6-5-3.6-10.3-6-15.6 2.4-5.3 4.5-10.5 6-15.5 13.8 4 22.1 10 22.1 15.6 0 4.7-5.8 9.7-15.7 13.4z"></path>
    </g>
  </symbol>
    <symbol xmlns="http://www.w3.org/2000/svg" viewBox="0 0 32 32" id="to-top">
    <g fill="none" stroke="#000000" stroke-width="2" stroke-linecap="round" stroke-linejoin="round">
      <path d="M30 20 L16 8 2 20"></path>
    </g>
  </symbol>
  </svg>
